<svg aria-hidden="true" style="position: absolute; width: 0; height: 0; overflow: hidden;" version="1.1" xmlns="http://www.w3.org/2000/svg" xmlns:xlink="http://www.w3.org/1999/xlink">
    <defs>
        <symbol id="location-find-icon" viewBox="0 0 32 32">
            <path fill="#fff" style="fill: var(--color1, #fff)" d="M16 2c-6.072 0.008-10.992 4.928-11 10.999v0.001c0 0.004 0 0.009 0 0.014 0 2.486 0.833 4.778 2.235 6.612l-0.019-0.026s0.3 0.395 0.349 0.452l8.435 9.948 8.44-9.953 0.344-0.447v-0.003c1.383-1.806 2.216-4.096 2.216-6.581 0-0.006 0-0.011 0-0.017v0.001c-0.008-6.072-4.928-10.992-10.999-11h-0.001zM16 17c-0.022 0-0.047 0.001-0.073 0.001-2.209 0-4-1.791-4-4s1.791-4 4-4c0.026 0 0.051 0 0.077 0.001l-0.004-0c2.178 0.041 3.927 1.816 3.927 3.999s-1.749 3.958-3.923 3.999l-0.004 0z"></path>
        </symbol>
        <symbol id="email-icon" viewBox="0 0 32 32">
            <path fill="#fff" style="fill: var(--color1, #fff)" d="M29.333 5.333h-26.667v21.333h26.667zM26.667 10.667l-10.667 6.667-10.667-6.667v-2.667l10.667 6.667 10.667-6.667z"></path>
        </symbol>
        <symbol id="phone-call-icon" viewBox="0 0 32 32">
            <path fill="#fff" style="fill: var(--color1, #fff)" d="M26.667 14.665h2.667c0-6.84-5.164-11.999-12.013-11.999v2.667c5.416 0 9.347 3.924 9.347 9.332z"></path>
            <path fill="#fff" style="fill: var(--color1, #fff)" d="M17.333 10.667c2.804 0 4 1.196 4 4h2.667c0-4.3-2.367-6.667-6.667-6.667zM21.896 17.924c-0.236-0.215-0.551-0.348-0.898-0.348-0.375 0-0.714 0.155-0.957 0.405l-0 0-3.191 3.281c-0.768-0.147-2.312-0.628-3.901-2.213-1.589-1.591-2.071-3.139-2.213-3.901l3.279-3.192c0.25-0.243 0.405-0.582 0.405-0.957 0-0.346-0.132-0.662-0.348-0.899l-4.926-5.416c-0.245-0.269-0.596-0.437-0.987-0.437-0.332 0-0.636 0.121-0.869 0.322l0.002-0.001-2.893 2.481c-0.223 0.224-0.367 0.526-0.386 0.862l-0 0.004c-0.020 0.333-0.401 8.229 5.721 14.355 5.341 5.34 12.032 5.731 13.875 5.731 0.269 0 0.435-0.008 0.479-0.011 0.339-0.021 0.641-0.165 0.864-0.388v0l2.48-2.895c0.2-0.232 0.322-0.536 0.322-0.868 0-0.39-0.168-0.742-0.435-0.985l-0.001-0.001z"></path>
        </symbol>
        <symbol id="discord-icon" viewBox="0 0 32 32">
            <path fill="#1b1b1b" style="fill: var(--color1, #1b1b1b)" d="M32 16c0 8.837-7.163 16-16 16s-16-7.163-16-16c0-8.837 7.163-16 16-16s16 7.163 16 16z"></path>
            <path fill="#fff" style="fill: var(--color2, #fff)" d="M22.079 11.552c-0.939-0.389-2.036-0.698-3.176-0.875l-0.082-0.010c-0.011 0-0.021 0.002-0.031 0.004l0.001-0c-0.009 0.004-0.016 0.010-0.021 0.018l-0 0c-0.13 0.2-0.265 0.439-0.387 0.685l-0.020 0.044c-0.549-0.077-1.184-0.121-1.829-0.121s-1.28 0.044-1.902 0.129l0.072-0.008c-0.138-0.285-0.275-0.524-0.427-0.752l0.015 0.024c-0.005-0.008-0.013-0.014-0.021-0.018l-0-0q-0.016-0.005-0.031-0.003c-1.221 0.186-2.317 0.494-3.353 0.919l0.097-0.035c-0.009 0.003-0.016 0.008-0.021 0.015l-0 0c-2.074 2.71-2.643 5.355-2.364 7.965q0.003 0.020 0.021 0.032c1.148 0.751 2.477 1.356 3.896 1.744l0.099 0.023q0.016 0.005 0.032 0c0.010-0.003 0.018-0.009 0.024-0.016l0-0c0.289-0.342 0.559-0.722 0.796-1.124l0.021-0.038c0.004-0.006 0.006-0.014 0.006-0.021 0-0.002-0-0.004-0.001-0.006l0 0c-0.002-0.010-0.007-0.018-0.015-0.024l-0-0-0.018-0.010c-0.493-0.167-0.906-0.342-1.302-0.545l0.054 0.025c-0.011-0.005-0.020-0.014-0.023-0.025l-0-0c-0.001-0.004-0.002-0.008-0.002-0.012 0-0.007 0.002-0.014 0.005-0.020l-0 0c0.003-0.007 0.009-0.013 0.015-0.017l0-0q0.128-0.084 0.249-0.171c0.009-0.006 0.020-0.010 0.032-0.010 0.007 0 0.014 0.001 0.020 0.004l-0-0c2.619 1.045 5.454 1.045 8.041 0 0.008-0.002 0.017-0.003 0.026-0.003 0.001 0 0.001 0 0.002 0h-0c0.010 0.002 0.018 0.006 0.026 0.010l-0.001-0q0.122 0.087 0.247 0.171 0.011 0.007 0.016 0.017c0.003 0.006 0.005 0.012 0.005 0.020 0 0.009-0.003 0.017-0.007 0.023l0-0c-0.005 0.006-0.011 0.010-0.018 0.015l-0 0q-0.598 0.305-1.248 0.519c-0.007 0.003-0.014 0.007-0.020 0.011l0-0-0.011 0.015-0.003 0.018q0 0.011 0.005 0.018 0.363 0.61 0.817 1.163c0.007 0.008 0.015 0.013 0.025 0.016l0 0q0.016 0.005 0.031 0c1.519-0.411 2.851-1.016 4.054-1.8l-0.054 0.033c0.006-0.003 0.011-0.008 0.015-0.014l0-0c0.003-0.005 0.006-0.012 0.006-0.019v-0c0.334-3.019-0.559-5.639-2.366-7.964l-0.007-0.011zM13.881 17.941c-0.789 0-1.438-0.633-1.438-1.408 0-0.779 0.637-1.411 1.438-1.411 0.807 0 1.451 0.638 1.438 1.41 0 0.777-0.637 1.41-1.438 1.41zM19.197 17.942c-0.789 0-1.439-0.633-1.439-1.408 0-0.779 0.638-1.411 1.439-1.411 0.806 0 1.451 0.638 1.438 1.41 0 0.777-0.631 1.41-1.438 1.41z"></path>
        </symbol>
        <symbol id="X-icon" viewBox="0 0 32 32">
            <path fill="#1b1b1b" style="fill: var(--color1, #1b1b1b)" d="M32 16c0 8.837-7.163 16-16 16s-16-7.163-16-16c0-8.837 7.163-16 16-16s16 7.163 16 16z"></path>
            <path fill="#fff" style="fill: var(--color2, #fff)" d="M24.533 11.121c-0.55 0.244-1.189 0.42-1.858 0.496l-0.030 0.003c0.676-0.399 1.186-1.018 1.435-1.758l0.007-0.023c-0.643 0.377-1.346 0.64-2.080 0.781-0.302-0.316-0.665-0.571-1.070-0.748l-0.021-0.008c-0.382-0.167-0.828-0.265-1.296-0.265-0.003 0-0.007 0-0.010 0h0.001c-1.817 0-3.278 1.451-3.278 3.23 0 0.251 0.031 0.5 0.080 0.74-2.723-0.135-5.124-1.414-6.747-3.363l-0.012-0.015c-0.28 0.463-0.446 1.022-0.446 1.621 0 0.003 0 0.007 0 0.010v-0.001c0 1.121 0.579 2.11 1.461 2.691-0.547-0.022-1.055-0.172-1.5-0.42l0.017 0.009v0.041c0 1.569 1.126 2.869 2.628 3.169-0.259 0.069-0.556 0.109-0.862 0.11h-0.001c-0.213 0-0.416-0.021-0.619-0.049 0.415 1.28 1.625 2.21 3.065 2.24-1.108 0.861-2.519 1.38-4.051 1.38-0.007 0-0.014 0-0.021-0h0.001c-0.275 0-0.529-0.010-0.793-0.039 1.419 0.908 3.151 1.448 5.008 1.448 0.009 0 0.019 0 0.028-0h-0.001c6.030 0 9.33-4.919 9.33-9.189 0-0.14 0-0.279-0.011-0.42 0.642-0.467 1.186-1.019 1.63-1.647l0.015-0.022z"></path>
        </symbol>
        <symbol id="instagram-icon" viewBox="0 0 32 32">
            <path fill="#1b1b1b" d="M0 16c0-8.837 7.163-16 16-16s16 7.163 16 16c0 8.837-7.163 16-16 16s-16-7.163-16-16zM16.001 7.467c-2.317 0-2.608 0.010-3.519 0.052-0.909 0.042-1.528 0.185-2.071 0.396-0.561 0.218-1.037 0.51-1.512 0.984s-0.766 0.95-0.985 1.511c-0.212 0.543-0.356 1.163-0.396 2.071-0.041 0.91-0.051 1.201-0.051 3.519s0.010 2.607 0.052 3.518c0.042 0.909 0.186 1.529 0.396 2.071 0.218 0.561 0.51 1.037 0.984 1.512s0.95 0.767 1.511 0.985c0.543 0.211 1.163 0.355 2.072 0.396 0.91 0.041 1.201 0.052 3.518 0.052s2.608-0.010 3.518-0.052c0.908-0.042 1.529-0.185 2.072-0.396 0.561-0.218 1.036-0.51 1.511-0.985s0.766-0.95 0.985-1.512c0.21-0.543 0.354-1.163 0.396-2.071 0.041-0.91 0.052-1.2 0.052-3.518s-0.011-2.608-0.052-3.519c-0.043-0.909-0.187-1.529-0.396-2.071-0.219-0.561-0.51-1.037-0.985-1.512s-0.949-0.766-1.511-0.984c-0.544-0.211-1.164-0.355-2.073-0.396-0.91-0.041-1.2-0.052-3.518-0.052h0.003z"></path>
            <path fill="#fff" d="M15.235 9.005c0.227-0 0.481 0 0.766 0 2.278 0 2.548 0.008 3.448 0.049 0.832 0.038 1.284 0.177 1.584 0.294 0.398 0.155 0.682 0.34 0.981 0.638s0.484 0.583 0.639 0.981c0.117 0.3 0.256 0.752 0.294 1.584 0.041 0.899 0.050 1.17 0.050 3.447s-0.009 2.548-0.050 3.447c-0.038 0.832-0.177 1.284-0.294 1.584-0.155 0.398-0.34 0.682-0.639 0.98s-0.582 0.483-0.981 0.638c-0.3 0.117-0.752 0.256-1.584 0.294-0.9 0.041-1.17 0.050-3.448 0.050s-2.549-0.009-3.448-0.050c-0.832-0.038-1.284-0.177-1.585-0.294-0.398-0.155-0.683-0.34-0.981-0.638s-0.484-0.582-0.639-0.981c-0.117-0.3-0.256-0.752-0.294-1.584-0.041-0.9-0.049-1.17-0.049-3.449s0.008-2.548 0.049-3.447c0.038-0.832 0.177-1.284 0.294-1.584 0.155-0.398 0.34-0.683 0.639-0.981s0.583-0.484 0.981-0.639c0.301-0.117 0.753-0.256 1.585-0.294 0.787-0.036 1.092-0.046 2.683-0.048v0.002zM20.555 10.422c-0.565 0-1.024 0.458-1.024 1.024s0.459 1.024 1.024 1.024c0.565 0 1.024-0.459 1.024-1.024s-0.459-1.024-1.024-1.024zM16 11.618c-2.42 0-4.382 1.962-4.382 4.382s1.962 4.381 4.382 4.381c2.42 0 4.381-1.961 4.381-4.381s-1.961-4.382-4.381-4.382z"></path>
            <path fill="#fff"  d="M16.001 13.155c1.571 0 2.845 1.273 2.845 2.844s-1.274 2.845-2.845 2.845c-1.571 0-2.845-1.274-2.845-2.845s1.273-2.844 2.845-2.844z"></path>
        </symbol>
        <symbol id="arrow-icon" viewBox="0 0 38 32">
            <path d="M0.624 17.219c-0.833-0.833-0.833-2.184 0-3.017l13.576-13.576c0.833-0.833 2.184-0.833 3.017 0s0.833 2.184 0 3.017l-12.068 12.068 12.068 12.068c0.833 0.833 0.833 2.184 0 3.017s-2.184 0.833-3.017 0l-13.576-13.576zM37.892 17.844h-35.759v-4.267h35.759v4.267z"></path>
        </symbol>
    </defs>
</svg>
