<svg aria-hidden="true" style="position: absolute; width: 0; height: 0; overflow: hidden;" version="1.1" xmlns="http://www.w3.org/2000/svg" xmlns:xlink="http://www.w3.org/1999/xlink">
    <defs>
        <symbol id="company-logo" viewBox="0 0 48 32">
            <path d="M21.020 12.008c0 1.325-0.008 1.42-0.133 1.365-0.502-0.22-0.973-0.345-1.286-0.353-0.894 0-1.757 0.557-2.157 1.396-0.188 0.384-0.212 0.549-0.212 1.169-0.008 0.651 0.016 0.761 0.251 1.231 0.533 1.098 1.757 1.647 2.769 1.247 0.188-0.071 0.408-0.188 0.502-0.274 0.212-0.188 0.251-0.18 0.282 0.071l0.024 0.22h1.49v-7.451l-1.529-0.047v1.427zM20.471 14.439c0.416 0.235 0.549 0.502 0.549 1.145 0 0.847-0.369 1.278-1.098 1.278-0.408 0-0.722-0.165-0.973-0.494-0.282-0.369-0.29-1.153-0.024-1.553 0.345-0.518 1.004-0.682 1.545-0.376z"></path>
            <path d="M8.604 13.098c-0.729 0.188-1.38 0.714-1.71 1.396-0.149 0.306-0.18 0.494-0.188 1.114 0 0.682 0.024 0.784 0.235 1.169 0.29 0.533 0.8 0.973 1.365 1.2 0.612 0.243 1.537 0.243 2.078 0 0.424-0.196 0.91-0.533 0.91-0.643 0-0.031-0.18-0.282-0.4-0.541l-0.4-0.478-0.227 0.196c-0.941 0.792-2.282 0.016-2.063-1.2 0.157-0.847 1.035-1.208 1.835-0.753l0.353 0.204 0.267-0.306c0.486-0.557 0.518-0.635 0.353-0.816-0.298-0.329-0.886-0.557-1.514-0.588-0.329-0.016-0.729 0.008-0.894 0.047z"></path>
            <path d="M13.278 13.137c-0.769 0.212-1.294 0.659-1.624 1.373-0.29 0.62-0.29 1.553 0 2.165 0.784 1.655 3.098 2.024 4.431 0.706 0.4-0.4 0.526-0.635 0.651-1.255 0.259-1.224-0.298-2.337-1.427-2.847-0.533-0.251-1.443-0.314-2.031-0.141zM14.769 14.494c0.447 0.267 0.659 1.114 0.416 1.686-0.055 0.141-0.22 0.361-0.369 0.478-0.235 0.204-0.306 0.22-0.753 0.188-0.384-0.024-0.533-0.071-0.698-0.22-0.722-0.667-0.478-2 0.408-2.274 0.282-0.086 0.706-0.024 0.996 0.141z"></path>
            <path d="M24.902 13.090c-0.761 0.204-1.341 0.667-1.663 1.325-0.196 0.392-0.22 0.533-0.22 1.192 0 0.604 0.031 0.816 0.173 1.122 0.526 1.145 2.031 1.733 3.38 1.318 0.518-0.157 1.184-0.565 1.247-0.761 0.016-0.047-0.125-0.259-0.322-0.471-0.306-0.337-0.369-0.369-0.494-0.29-0.808 0.549-1.851 0.533-2.298-0.031-0.314-0.408-0.298-0.408 1.553-0.431l1.702-0.024-0.016-0.588c-0.031-1.373-0.925-2.329-2.251-2.392-0.306-0.024-0.659-0.008-0.792 0.031zM26.031 14.306c0.22 0.118 0.502 0.573 0.431 0.69-0.024 0.031-0.463 0.063-0.98 0.063-0.792 0-0.933-0.016-0.933-0.126 0-0.549 0.894-0.925 1.482-0.627z"></path>
            <path d="M31.176 13.137c-0.173 0.063-0.447 0.251-0.612 0.431-0.165 0.173-0.314 0.314-0.329 0.314-0.024 0-0.039-0.18-0.039-0.392v-0.392h-1.49v5.012h1.474l0.031-1.349c0.016-1.090 0.047-1.396 0.157-1.6 0.212-0.376 0.588-0.573 1.114-0.573h0.439v-1.569h-0.212c-0.125 0.008-0.361 0.055-0.533 0.118z"></path>
            <path d="M33.882 13.090c-0.306 0.063-1.067 0.408-1.278 0.588-0.141 0.11-0.133 0.133 0.149 0.549 0.157 0.243 0.298 0.439 0.306 0.439 0.016 0 0.212-0.086 0.447-0.196 0.306-0.141 0.549-0.196 0.91-0.196 0.447 0 0.526 0.024 0.729 0.227 0.126 0.126 0.227 0.259 0.227 0.298s-0.431 0.11-0.965 0.157c-1.655 0.133-2.329 0.635-2.329 1.71 0 1.341 1.827 2.008 3.020 1.098l0.345-0.267 0.047 0.58 1.388 0.047-0.031-1.827c-0.024-1.718-0.031-1.851-0.204-2.157-0.376-0.706-0.957-1.043-1.898-1.082-0.322-0.016-0.714-0.008-0.863 0.031zM35.373 16.055c0 0.274-0.243 0.674-0.502 0.847-0.11 0.071-0.353 0.133-0.549 0.133-0.455 0.008-0.753-0.18-0.753-0.471 0.008-0.455 0.424-0.682 1.302-0.714 0.502-0.016 0.502-0.016 0.502 0.204z"></path>
            <path fill="#3b82f6" d="M38.439 16.212c-0.408 0.212-0.596 0.518-0.596 0.965 0 0.298 0.039 0.424 0.196 0.588 0.541 0.588 1.443 0.51 1.757-0.157 0.165-0.345 0.157-0.651-0.031-0.957-0.298-0.494-0.863-0.675-1.325-0.439z"></path>
        </symbol>
        <symbol id="location-find-icon" viewBox="0 0 32 32">
            <path fill="#fff" style="fill: var(--color1, #fff)" d="M16 2c-6.072 0.008-10.992 4.928-11 10.999v0.001c0 0.004 0 0.009 0 0.014 0 2.486 0.833 4.778 2.235 6.612l-0.019-0.026s0.3 0.395 0.349 0.452l8.435 9.948 8.44-9.953 0.344-0.447v-0.003c1.383-1.806 2.216-4.096 2.216-6.581 0-0.006 0-0.011 0-0.017v0.001c-0.008-6.072-4.928-10.992-10.999-11h-0.001zM16 17c-0.022 0-0.047 0.001-0.073 0.001-2.209 0-4-1.791-4-4s1.791-4 4-4c0.026 0 0.051 0 0.077 0.001l-0.004-0c2.178 0.041 3.927 1.816 3.927 3.999s-1.749 3.958-3.923 3.999l-0.004 0z"></path>
        </symbol>
        <symbol id="email-icon" viewBox="0 0 32 32">
            <path fill="#fff" style="fill: var(--color1, #fff)" d="M29.333 5.333h-26.667v21.333h26.667zM26.667 10.667l-10.667 6.667-10.667-6.667v-2.667l10.667 6.667 10.667-6.667z"></path>
        </symbol>
        <symbol id="phone-call-icon" viewBox="0 0 32 32">
            <path fill="#fff" style="fill: var(--color1, #fff)" d="M26.667 14.665h2.667c0-6.84-5.164-11.999-12.013-11.999v2.667c5.416 0 9.347 3.924 9.347 9.332z"></path>
            <path fill="#fff" style="fill: var(--color1, #fff)" d="M17.333 10.667c2.804 0 4 1.196 4 4h2.667c0-4.3-2.367-6.667-6.667-6.667zM21.896 17.924c-0.236-0.215-0.551-0.348-0.898-0.348-0.375 0-0.714 0.155-0.957 0.405l-0 0-3.191 3.281c-0.768-0.147-2.312-0.628-3.901-2.213-1.589-1.591-2.071-3.139-2.213-3.901l3.279-3.192c0.25-0.243 0.405-0.582 0.405-0.957 0-0.346-0.132-0.662-0.348-0.899l-4.926-5.416c-0.245-0.269-0.596-0.437-0.987-0.437-0.332 0-0.636 0.121-0.869 0.322l0.002-0.001-2.893 2.481c-0.223 0.224-0.367 0.526-0.386 0.862l-0 0.004c-0.020 0.333-0.401 8.229 5.721 14.355 5.341 5.34 12.032 5.731 13.875 5.731 0.269 0 0.435-0.008 0.479-0.011 0.339-0.021 0.641-0.165 0.864-0.388v0l2.48-2.895c0.2-0.232 0.322-0.536 0.322-0.868 0-0.39-0.168-0.742-0.435-0.985l-0.001-0.001z"></path>
        </symbol>
        <symbol id="discord-icon" viewBox="0 0 32 32">
            <path fill="#1b1b1b" style="fill: var(--color1, #1b1b1b)" d="M32 16c0 8.837-7.163 16-16 16s-16-7.163-16-16c0-8.837 7.163-16 16-16s16 7.163 16 16z"></path>
            <path fill="#fff" style="fill: var(--color2, #fff)" d="M22.079 11.552c-0.939-0.389-2.036-0.698-3.176-0.875l-0.082-0.010c-0.011 0-0.021 0.002-0.031 0.004l0.001-0c-0.009 0.004-0.016 0.010-0.021 0.018l-0 0c-0.13 0.2-0.265 0.439-0.387 0.685l-0.020 0.044c-0.549-0.077-1.184-0.121-1.829-0.121s-1.28 0.044-1.902 0.129l0.072-0.008c-0.138-0.285-0.275-0.524-0.427-0.752l0.015 0.024c-0.005-0.008-0.013-0.014-0.021-0.018l-0-0q-0.016-0.005-0.031-0.003c-1.221 0.186-2.317 0.494-3.353 0.919l0.097-0.035c-0.009 0.003-0.016 0.008-0.021 0.015l-0 0c-2.074 2.71-2.643 5.355-2.364 7.965q0.003 0.020 0.021 0.032c1.148 0.751 2.477 1.356 3.896 1.744l0.099 0.023q0.016 0.005 0.032 0c0.010-0.003 0.018-0.009 0.024-0.016l0-0c0.289-0.342 0.559-0.722 0.796-1.124l0.021-0.038c0.004-0.006 0.006-0.014 0.006-0.021 0-0.002-0-0.004-0.001-0.006l0 0c-0.002-0.010-0.007-0.018-0.015-0.024l-0-0-0.018-0.010c-0.493-0.167-0.906-0.342-1.302-0.545l0.054 0.025c-0.011-0.005-0.020-0.014-0.023-0.025l-0-0c-0.001-0.004-0.002-0.008-0.002-0.012 0-0.007 0.002-0.014 0.005-0.020l-0 0c0.003-0.007 0.009-0.013 0.015-0.017l0-0q0.128-0.084 0.249-0.171c0.009-0.006 0.020-0.010 0.032-0.010 0.007 0 0.014 0.001 0.020 0.004l-0-0c2.619 1.045 5.454 1.045 8.041 0 0.008-0.002 0.017-0.003 0.026-0.003 0.001 0 0.001 0 0.002 0h-0c0.010 0.002 0.018 0.006 0.026 0.010l-0.001-0q0.122 0.087 0.247 0.171 0.011 0.007 0.016 0.017c0.003 0.006 0.005 0.012 0.005 0.020 0 0.009-0.003 0.017-0.007 0.023l0-0c-0.005 0.006-0.011 0.010-0.018 0.015l-0 0q-0.598 0.305-1.248 0.519c-0.007 0.003-0.014 0.007-0.020 0.011l0-0-0.011 0.015-0.003 0.018q0 0.011 0.005 0.018 0.363 0.61 0.817 1.163c0.007 0.008 0.015 0.013 0.025 0.016l0 0q0.016 0.005 0.031 0c1.519-0.411 2.851-1.016 4.054-1.8l-0.054 0.033c0.006-0.003 0.011-0.008 0.015-0.014l0-0c0.003-0.005 0.006-0.012 0.006-0.019v-0c0.334-3.019-0.559-5.639-2.366-7.964l-0.007-0.011zM13.881 17.941c-0.789 0-1.438-0.633-1.438-1.408 0-0.779 0.637-1.411 1.438-1.411 0.807 0 1.451 0.638 1.438 1.41 0 0.777-0.637 1.41-1.438 1.41zM19.197 17.942c-0.789 0-1.439-0.633-1.439-1.408 0-0.779 0.638-1.411 1.439-1.411 0.806 0 1.451 0.638 1.438 1.41 0 0.777-0.631 1.41-1.438 1.41z"></path>
        </symbol>
        <symbol id="X-icon" viewBox="0 0 32 32">
            <path fill="#1b1b1b" style="fill: var(--color1, #1b1b1b)" d="M32 16c0 8.837-7.163 16-16 16s-16-7.163-16-16c0-8.837 7.163-16 16-16s16 7.163 16 16z"></path>
            <path fill="#fff" style="fill: var(--color2, #fff)" d="M24.533 11.121c-0.55 0.244-1.189 0.42-1.858 0.496l-0.030 0.003c0.676-0.399 1.186-1.018 1.435-1.758l0.007-0.023c-0.643 0.377-1.346 0.64-2.080 0.781-0.302-0.316-0.665-0.571-1.070-0.748l-0.021-0.008c-0.382-0.167-0.828-0.265-1.296-0.265-0.003 0-0.007 0-0.010 0h0.001c-1.817 0-3.278 1.451-3.278 3.23 0 0.251 0.031 0.5 0.080 0.74-2.723-0.135-5.124-1.414-6.747-3.363l-0.012-0.015c-0.28 0.463-0.446 1.022-0.446 1.621 0 0.003 0 0.007 0 0.010v-0.001c0 1.121 0.579 2.11 1.461 2.691-0.547-0.022-1.055-0.172-1.5-0.42l0.017 0.009v0.041c0 1.569 1.126 2.869 2.628 3.169-0.259 0.069-0.556 0.109-0.862 0.11h-0.001c-0.213 0-0.416-0.021-0.619-0.049 0.415 1.28 1.625 2.21 3.065 2.24-1.108 0.861-2.519 1.38-4.051 1.38-0.007 0-0.014 0-0.021-0h0.001c-0.275 0-0.529-0.010-0.793-0.039 1.419 0.908 3.151 1.448 5.008 1.448 0.009 0 0.019 0 0.028-0h-0.001c6.030 0 9.33-4.919 9.33-9.189 0-0.14 0-0.279-0.011-0.42 0.642-0.467 1.186-1.019 1.63-1.647l0.015-0.022z"></path>
        </symbol>
        <symbol id="instagram-icon" viewBox="0 0 32 32">
            <path fill="#1b1b1b" d="M0 16c0-8.837 7.163-16 16-16s16 7.163 16 16c0 8.837-7.163 16-16 16s-16-7.163-16-16zM16.001 7.467c-2.317 0-2.608 0.010-3.519 0.052-0.909 0.042-1.528 0.185-2.071 0.396-0.561 0.218-1.037 0.51-1.512 0.984s-0.766 0.95-0.985 1.511c-0.212 0.543-0.356 1.163-0.396 2.071-0.041 0.91-0.051 1.201-0.051 3.519s0.010 2.607 0.052 3.518c0.042 0.909 0.186 1.529 0.396 2.071 0.218 0.561 0.51 1.037 0.984 1.512s0.95 0.767 1.511 0.985c0.543 0.211 1.163 0.355 2.072 0.396 0.91 0.041 1.201 0.052 3.518 0.052s2.608-0.010 3.518-0.052c0.908-0.042 1.529-0.185 2.072-0.396 0.561-0.218 1.036-0.51 1.511-0.985s0.766-0.95 0.985-1.512c0.21-0.543 0.354-1.163 0.396-2.071 0.041-0.91 0.052-1.2 0.052-3.518s-0.011-2.608-0.052-3.519c-0.043-0.909-0.187-1.529-0.396-2.071-0.219-0.561-0.51-1.037-0.985-1.512s-0.949-0.766-1.511-0.984c-0.544-0.211-1.164-0.355-2.073-0.396-0.91-0.041-1.2-0.052-3.518-0.052h0.003z"></path>
            <path fill="#fff" d="M15.235 9.005c0.227-0 0.481 0 0.766 0 2.278 0 2.548 0.008 3.448 0.049 0.832 0.038 1.284 0.177 1.584 0.294 0.398 0.155 0.682 0.34 0.981 0.638s0.484 0.583 0.639 0.981c0.117 0.3 0.256 0.752 0.294 1.584 0.041 0.899 0.050 1.17 0.050 3.447s-0.009 2.548-0.050 3.447c-0.038 0.832-0.177 1.284-0.294 1.584-0.155 0.398-0.34 0.682-0.639 0.98s-0.582 0.483-0.981 0.638c-0.3 0.117-0.752 0.256-1.584 0.294-0.9 0.041-1.17 0.050-3.448 0.050s-2.549-0.009-3.448-0.050c-0.832-0.038-1.284-0.177-1.585-0.294-0.398-0.155-0.683-0.34-0.981-0.638s-0.484-0.582-0.639-0.981c-0.117-0.3-0.256-0.752-0.294-1.584-0.041-0.9-0.049-1.17-0.049-3.449s0.008-2.548 0.049-3.447c0.038-0.832 0.177-1.284 0.294-1.584 0.155-0.398 0.34-0.683 0.639-0.981s0.583-0.484 0.981-0.639c0.301-0.117 0.753-0.256 1.585-0.294 0.787-0.036 1.092-0.046 2.683-0.048v0.002zM20.555 10.422c-0.565 0-1.024 0.458-1.024 1.024s0.459 1.024 1.024 1.024c0.565 0 1.024-0.459 1.024-1.024s-0.459-1.024-1.024-1.024zM16 11.618c-2.42 0-4.382 1.962-4.382 4.382s1.962 4.381 4.382 4.381c2.42 0 4.381-1.961 4.381-4.381s-1.961-4.382-4.381-4.382z"></path>
            <path fill="#fff"  d="M16.001 13.155c1.571 0 2.845 1.273 2.845 2.844s-1.274 2.845-2.845 2.845c-1.571 0-2.845-1.274-2.845-2.845s1.273-2.844 2.845-2.844z"></path>
        </symbol>
        <symbol id="arrow-icon" viewBox="0 0 38 32">
            <path d="M0.624 17.219c-0.833-0.833-0.833-2.184 0-3.017l13.576-13.576c0.833-0.833 2.184-0.833 3.017 0s0.833 2.184 0 3.017l-12.068 12.068 12.068 12.068c0.833 0.833 0.833 2.184 0 3.017s-2.184 0.833-3.017 0l-13.576-13.576zM37.892 17.844h-35.759v-4.267h35.759v4.267z"></path>
        </symbol>
        <symbol id="linkedin-icon" viewBox="0 0 32 32">
            <path fill="#1b1b1b" d="M32 16c0 8.837-7.163 16-16 16S0 24.837 0 16 7.163 0 16 0s16 7.163 16 16z"/>
            <path fill="#fff" d="M11.3 13.3H8.7v8h2.6v-8zM10 12.2c.9 0 1.5-.6 1.5-1.4 0-.8-.6-1.4-1.5-1.4s-1.5.6-1.5 1.4c0 .8.6 1.4 1.5 1.4zM13 13.3h2.5v1.1h.1c.3-.6 1.2-1.2 2.4-1.2 2.6 0 3.1 1.7 3.1 3.9v4.2h-2.6v-3.8c0-.9 0-2.1-1.3-2.1s-1.5 1-1.5 2v3.9H13v-8z"/>
        </symbol>
        <symbol id="facebook-icon" viewBox="0 0 32 32">
            <path fill="#1b1b1b" d="M32 16c0 8.837-7.163 16-16 16S0 24.837 0 16 7.163 0 16 0s16 7.163 16 16z"/>
            <path fill="#fff" d="M17.8 25v-7h2.3l.4-2.7h-2.7v-1.7c0-.8.2-1.3 1.3-1.3h1.4V10c-.2 0-.9-.1-1.8-.1-1.8 0-3 1.1-3 3.2v1.8H13v2.7h2v7h2.8z"/>
        </symbol>
    </defs>
</svg>

